PathFileType  4	(X/Y/Z) C:\Users\antoi\Documents\MyRepositories\mobilecap\ResultsAnalysis
DataRate	CameraRate	NumFrames	NumMarkers	Units	OrigDataRate	OrigDataStartFrame	OrigNumFrames
100.0	100.0	6	51	mm	100.0	94	149
Frame#	Time	r_knee			r_shank_antsup			r_ankle			r_calc			r_5meta			r_toe			L_knee			L_shank_antsup			L_ankle			L_calc			L_5meta			L_toe			r_sh2			r_sh3			r_sh4			L_sh2			L_sh3			r_thigh1			r_thigh2			r_thigh3			r_thigh4			r_thigh5			L_thigh1			L_thigh2			L_thigh3			L_thigh4			r.ASIS			r.PSIS			L.ASIS			L.PSIS			C7			R_Shoulder			L_Shoulder			R_Sternum			L_Sternum			R_humerus			R_elbow_med			R_elbow_lat			R_forearm			R_wrist_radius			R_wrist_ulna			L_humerus			L_elbow_med			L_elbow_lat			L_forearm			L_wrist_radius			L_wrist_ulna			R_HJC			L_HJC			R_HJC_reg			L_HJC_reg			
		X1	Y1	Z1	X2	Y2	Z2	X3	Y3	Z3	X4	Y4	Z4	X5	Y5	Z5	X6	Y6	Z6	X7	Y7	Z7	X8	Y8	Z8	X9	Y9	Z9	X10	Y10	Z10	X11	Y11	Z11	X12	Y12	Z12	X13	Y13	Z13	X14	Y14	Z14	X15	Y15	Z15	X16	Y16	Z16	X17	Y17	Z17	X18	Y18	Z18	X19	Y19	Z19	X20	Y20	Z20	X21	Y21	Z21	X22	Y22	Z22	X23	Y23	Z23	X24	Y24	Z24	X25	Y25	Z25	X26	Y26	Z26	X27	Y27	Z27	X28	Y28	Z28	X29	Y29	Z29	X30	Y30	Z30	X31	Y31	Z31	X32	Y32	Z32	X33	Y33	Z33	X34	Y34	Z34	X35	Y35	Z35	X36	Y36	Z36	X37	Y37	Z37	X38	Y38	Z38	X39	Y39	Z39	X40	Y40	Z40	X41	Y41	Z41	X42	Y42	Z42	X43	Y43	Z43	X44	Y44	Z44	X45	Y45	Z45	X46	Y46	Z46	X47	Y47	Z47	X48	Y48	Z48	X49	Y49	Z49	X50	Y50	Z50	X51	Y51	Z51	

94	0.93000000	1009.29958	489.59210	-31.17040	1012.44178	415.58258	-37.13312	751.77999	206.38850	-74.98972	694.84661	219.76298	-125.42548	803.49882	97.00345	-55.28475	855.33304	94.47510	-102.96757	922.05517	467.06333	-298.68203	955.92277	380.51018	-276.89795	849.43172	92.03506	-276.30267	786.04687	58.12189	-239.77188	951.19463	42.41464	-300.13199	997.03810	54.59830	-240.40314	927.58722	339.89672	-39.00858	962.91963	467.85464	-11.43223	870.23098	397.22806	-18.58863	883.68099	404.19160	-328.23547	861.52262	284.04523	-334.01923	981.63362	736.20996	0.26163	1023.32162	630.55063	-7.91580	969.98681	586.19384	-4.49211	875.99675	694.65929	-1.76971	919.87250	591.97754	-26.57828	946.85514	739.26510	-365.31032	957.96059	604.68015	-334.25342	836.35679	729.14086	-364.95727	842.60869	604.23852	-311.57277	976.37916	925.26887	-76.12810	767.74170	968.13511	-145.65345	979.38756	921.77857	-294.21415	771.54391	968.06933	-227.64745	893.94833	1367.93392	-310.04853	943.17886	1401.89715	-164.28135	937.92662	1274.49854	-417.68001	1015.39851	1311.75011	-257.29596	1010.12569	1293.60182	-293.48527	940.11272	1321.67131	-59.65201	797.20846	1157.81787	-0.35047	842.63077	1171.02223	48.13016	892.03042	1091.20611	68.76076	907.87180	947.61041	95.15519	884.99892	955.77277	126.05097	952.80358	1160.46819	-454.65534	914.87316	945.66744	-395.86251	945.07254	956.68388	-454.40371	1023.64346	882.00214	-448.56383	1088.84964	777.04347	-413.15711	1060.09757	757.73148	-436.11648	888.65107	843.67216	-78.73331	888.92668	843.79603	-286.23909	899.32302	860.89285	-109.39239	905.99168	860.77779	-253.20903	
95	0.94000000	1024.85545	492.35143	-32.31342	1030.73639	418.21862	-38.31744	779.05455	198.36439	-73.79570	720.56138	209.13339	-123.31188	836.12544	91.63602	-54.93554	887.40480	91.82895	-103.27607	925.83350	466.89187	-298.13409	958.72623	380.17496	-276.53391	849.91652	92.63769	-275.99096	786.39593	58.82620	-239.53067	951.44904	42.56688	-300.04928	996.92111	54.18903	-240.38958	949.18751	339.29732	-39.20689	979.51080	468.81300	-11.98111	889.79916	394.44616	-18.21484	886.70913	404.57469	-327.73258	863.56027	284.60765	-333.57707	992.82505	738.19589	0.72913	1035.99717	633.22045	-8.24196	983.51575	588.13996	-5.21903	887.85832	695.15416	-1.88421	933.18044	593.23813	-27.41017	954.11706	739.19670	-364.20824	963.75715	604.35681	-333.10824	843.44502	730.04566	-364.74001	848.24006	604.72511	-311.57471	985.93439	926.20906	-76.57330	776.83354	969.23074	-144.35312	987.55892	921.72656	-294.48288	780.16572	968.83357	-226.34717	903.66758	1368.08084	-311.36596	953.25168	1402.35669	-165.84783	947.05352	1274.14930	-418.88002	1025.10234	1311.76076	-258.85609	1019.48297	1293.38539	-295.00499	950.43196	1322.48646	-60.83411	807.85038	1159.03007	-0.13792	853.51002	1172.61497	48.10324	902.89556	1093.02467	69.44022	919.02321	949.82877	97.37113	896.19476	958.22655	128.16470	961.63422	1159.84588	-455.26893	923.52378	945.63307	-395.38858	954.13587	956.05096	-453.75372	1032.91022	881.57297	-447.44513	1098.33613	777.03112	-411.29928	1069.81712	757.58240	-434.09677	898.12296	844.76807	-77.95932	896.77250	844.03670	-285.46401	908.48918	861.84681	-109.11234	914.32936	861.14988	-252.84842	
96	0.95000000	1039.83630	494.89672	-33.57967	1048.57972	420.77500	-39.67659	806.82182	190.06581	-72.61082	746.86845	198.17078	-120.98622	869.17052	86.35555	-54.93388	919.65590	89.35186	-104.03841	929.46962	466.79290	-297.58119	961.24771	379.95109	-276.12244	850.26162	93.33693	-275.75641	786.74967	59.49727	-239.32113	951.60156	42.76889	-299.98758	996.80714	53.93349	-240.36443	970.67948	338.62370	-39.53747	995.80165	469.41645	-12.53212	909.25915	391.31580	-17.79234	889.49193	404.99523	-327.27498	865.40071	285.20950	-333.16753	1003.86604	739.97327	1.14705	1048.28579	635.61298	-8.62024	996.46647	589.90189	-6.14573	899.42332	695.63628	-2.37532	946.07260	594.31976	-28.60914	961.45024	739.16867	-362.97857	969.62477	604.17044	-331.78031	850.79196	730.88947	-364.72619	853.95456	605.09499	-311.86179	995.38034	927.13269	-76.82444	785.94511	970.19428	-143.21560	995.74697	921.68243	-294.61023	788.84358	969.52891	-225.20851	913.38361	1368.18907	-312.52544	963.29806	1402.72942	-167.27190	956.09745	1273.87901	-419.97410	1034.77423	1311.76339	-260.32094	1028.86406	1293.19442	-296.41852	960.84252	1323.21570	-61.90076	818.67903	1160.09554	0.32939	864.55941	1174.05555	48.22084	913.96950	1094.67707	70.09442	930.36518	951.89635	99.41208	907.63756	960.53214	130.17778	970.25203	1159.29953	-455.83728	932.08687	945.59231	-394.84944	962.95882	955.45225	-453.12201	1041.87272	881.20801	-446.37948	1107.58452	777.04938	-409.53331	1079.25715	757.44731	-432.17601	907.50662	845.81352	-77.17508	904.77562	844.23757	-284.66378	917.64166	862.66073	-108.72679	922.71991	861.49356	-252.41643	
97	0.96000000	1054.26843	497.19116	-34.99061	1066.02017	423.27116	-41.24904	834.99778	181.66639	-71.47223	773.75916	186.96744	-118.53668	902.61593	81.32419	-55.27698	952.04933	87.15100	-105.24010	932.93855	466.76492	-297.02800	963.47145	379.83136	-275.67116	850.44995	94.09289	-275.60293	787.07585	60.10341	-239.13278	951.63444	42.98389	-299.95099	996.74870	53.85907	-240.33215	992.09330	337.89659	-40.04269	1011.83179	469.63043	-13.10037	928.63804	387.85309	-17.36149	892.01040	405.43791	-326.85504	867.02365	285.83615	-332.78818	1014.74802	741.50885	1.50330	1060.20995	637.69731	-9.07484	1008.86463	591.46442	-7.24116	910.69112	696.07494	-3.14280	958.55757	595.23476	-30.05800	968.80234	739.12703	-361.68868	975.50185	604.09685	-330.33588	858.34935	731.65934	-364.83526	859.70990	605.39200	-312.33028	1004.74157	928.02339	-76.88568	795.07299	971.00315	-142.21681	1003.96551	921.64626	-294.60304	797.58224	970.12656	-224.21122	923.09735	1368.21762	-313.51886	973.33063	1402.98774	-168.55136	965.04694	1273.65078	-420.95623	1044.40360	1311.72176	-261.68334	1038.33730	1293.01029	-297.73089	971.35160	1323.84073	-62.85029	829.65654	1160.99895	0.96641	875.70404	1175.32619	48.46249	925.21604	1096.17407	70.75293	941.88795	953.80688	101.30938	919.28197	962.67490	132.09796	978.64211	1158.79961	-456.35279	940.57686	945.49223	-394.22388	971.52089	954.85231	-452.49987	1050.52171	880.87740	-445.36874	1116.60404	777.07911	-407.86651	1088.40302	757.29092	-430.36161	916.82865	846.78535	-76.37891	912.94549	844.38946	-283.84186	926.78896	863.33125	-108.24243	931.18511	861.79403	-251.92212	
98	0.97000000	1068.17582	499.19871	-36.56304	1083.11843	425.71046	-43.06073	863.52520	173.30144	-70.42153	801.21295	175.62158	-116.05551	936.42875	76.65364	-55.97793	984.54990	85.30203	-106.87652	936.22178	466.79736	-296.47744	965.41015	379.79825	-275.19456	850.51169	94.85616	-275.51168	787.34357	60.63744	-238.95684	951.56055	43.18231	-299.93813	996.77467	53.95024	-240.30138	1013.44961	337.12451	-40.76134	1027.62896	469.43677	-13.71399	947.97713	384.07753	-16.95525	894.27251	405.89066	-326.46174	868.44178	286.47396	-332.43508	1025.44358	742.75787	1.78924	1071.77626	639.43512	-9.63180	1020.74582	592.79577	-8.47866	921.66618	696.43444	-4.06794	970.62934	595.98243	-31.64567	976.13952	739.02443	-360.40361	981.32506	604.08555	-328.83925	866.03913	732.35943	-364.99261	865.44473	605.68446	-312.86669	1014.04657	928.84524	-76.77645	804.20807	971.64285	-141.32507	1012.23324	921.59944	-294.47429	806.38609	970.60622	-223.32061	932.81387	1368.13537	-314.34196	983.37305	1403.10312	-169.67985	973.91229	1273.42323	-421.81892	1053.97681	1311.58533	-262.92709	1047.95961	1292.79874	-298.94202	981.96273	1324.32240	-63.68259	840.72893	1161.73003	1.69473	886.89757	1176.40106	48.81057	936.60670	1097.50868	71.44077	953.58380	955.53591	103.09502	931.08721	964.61702	133.93155	986.83067	1158.31802	-456.80269	948.99128	945.30265	-393.51576	979.82673	954.22964	-451.87828	1058.88203	880.55140	-444.41306	1125.40691	777.09394	-406.30570	1097.25752	757.08898	-428.65614	926.11076	847.65101	-75.57204	921.27484	844.47810	-283.00393	935.92986	863.84711	-107.68598	939.74663	862.02934	-251.38758	
99	0.98000000	1081.57953	500.88504	-38.29767	1099.93397	428.07920	-45.11851	892.38473	165.06230	-69.51271	829.21353	164.23905	-113.63976	970.55453	72.40783	-57.05946	1017.12288	83.84984	-108.94060	939.31177	466.87666	-295.93360	967.10812	379.83307	-274.71301	850.51386	95.58010	-275.44864	787.53614	61.11480	-238.78967	951.42053	43.34386	-299.94209	996.89611	54.15629	-240.28403	1034.75531	336.31359	-41.72415	1043.19680	468.84591	-14.41208	967.33576	380.01299	-16.59951	896.30797	406.34812	-326.08606	869.69374	287.11472	-332.10566	1035.92835	743.67773	2.00118	1082.98936	640.79244	-10.31092	1032.16003	593.85273	-9.83031	932.37031	696.67915	-5.03253	982.28744	596.55843	-33.27011	983.44466	738.82552	-359.17887	987.03760	604.07085	-327.34841	873.76661	733.01173	-365.14380	871.08795	606.05071	-313.36800	1023.32485	929.55103	-76.52508	813.34535	972.10904	-140.50824	1020.57348	921.50883	-294.24138	815.26204	970.95953	-222.49684	942.54608	1367.92684	-314.99688	993.45824	1403.05093	-170.64947	982.72484	1273.15689	-422.55305	1063.49196	1311.30034	-264.03165	1057.75492	1292.51128	-300.04425	992.67693	1324.61143	-64.39934	851.85737	1162.26934	2.45966	898.12797	1177.25383	49.25324	948.12489	1098.65766	72.17487	965.44562	957.04640	104.79786	943.02148	966.30703	135.68327	994.87983	1157.83104	-457.17272	957.33608	945.01231	-392.74062	987.90851	953.58041	-451.25334	1067.00734	880.20337	-443.51136	1134.00615	777.06296	-404.85501	1105.83882	756.82925	-427.06001	935.36942	848.37548	-74.75802	929.74636	844.48657	-282.15683	945.06104	864.19070	-107.09281	948.42161	862.17444	-250.84028	
